<?xml version="1.0" encoding="utf-8"?>
<!-- Generator: Adobe Illustrator 21.0.2, SVG Export Plug-In . SVG Version: 6.00 Build 0)  -->
<svg version="1.1" id="Layer_1" xmlns="http://www.w3.org/2000/svg" xmlns:xlink="http://www.w3.org/1999/xlink" x="0px" y="0px"
	 viewBox="0 0 31.6 24.8" style="enable-background:new 0 0 31.6 24.8;" xml:space="preserve">
<style type="text/css">
	.st0{fill:#281401;}
</style>
<path class="st0" d="M31,10.8C31,10.7,31,10.8,31,10.8c-0.3,0.5-0.9-1-1.4-1.1c0.1-0.4,0.2-0.8,0.1-1.4c-0.6-0.1-0.9,0.6-1.4,0.8
	c-2.5,0.6-4.7,1.2-7.8,1.2c-1.7,0-3.9-0.7-5.9-0.8c-2-0.1-4,0.1-5.6,0.6c-0.8,0.2-1.7,0.7-2.7,1c-0.5,0.1-1,0.2-1.6,0.1
	C3.5,11.2,1.5,9.9,1.6,8c0.2-3,4.6-3.3,4.5-6.5c0-0.6-0.5-2-1.3-1.3c-0.3,0.6,0,0.8,0,1.4C4.7,3,3.5,3.3,2.6,3.9
	C1.5,4.6,0.2,6.1,0,7.8c-0.3,2.9,2.1,4.7,3.9,5.4c0.4,0.1,0.8,0.2,1.2,0.3c0.3,0.1,0.5,0.2,0.6,0.4C5.9,14.4,5.8,15.3,6,16
	c0.1,0.7,0.4,1.3,0.3,1.8c-0.2,0.7-0.9,0.9-1.4,1.4c-0.1,2.2-1.1,5.7,1.6,5.5c0.7-0.7-0.3-1.2-0.5-1.9c-0.2-0.9,0.6-1.8,0.9-2.6
	c0.7-0.3,1.6-0.4,2.4-0.6c0.2,0.6,0.6,1.2,0.9,1.9c0.6,1.3,1.5,3.3,3.3,2.7c0.3-1.1-1-1.3-1.3-2c-0.3-0.5-0.6-1.7-0.6-2.3
	c0.1-0.9,1.1-1.2,1.5-1.9c1.5-0.1,2.8,0,3.9,0.3c0.8,1.5,0.8,5.3,2.6,5.9c0.6,0.2,1.8,0.1,1.9-0.5c0.1-0.7-0.7-0.9-1.5-0.9
	c-0.4-1-0.6-2.8-0.5-4.1c1.8-0.3,2.6,1,3.8,1.8c0.7,0.4,1.5,0.8,2.3,1.2c1,0.6,1.8,2.2,3.1,1.9c0.4-1.3-0.9-2.2-1.8-3
	c-0.8-0.8-1.9-1.4-2.6-2.1c-0.5-3,1.6-4.2,4.7-4.2c0.4,0,0.9,0.2,1.3,0.1c0.6-0.1,0.9-0.8,1.2-1.2C31.3,12.5,30.7,11.6,31,10.8"/>
</svg>
