<?xml version="1.0" encoding="utf-8"?>
<!-- Generator: Adobe Illustrator 21.0.2, SVG Export Plug-In . SVG Version: 6.00 Build 0)  -->
<svg version="1.1" id="Layer_1" xmlns="http://www.w3.org/2000/svg" xmlns:xlink="http://www.w3.org/1999/xlink" x="0px" y="0px"
	 viewBox="0 0 37.9 72.9" style="enable-background:new 0 0 37.9 72.9;" xml:space="preserve">
<style type="text/css">
	.st0{clip-path:url(#SVGID_2_);}
</style>
<g>
	<defs>
		<rect id="SVGID_1_" y="0" width="37.9" height="72.8"/>
	</defs>
	<clipPath id="SVGID_2_">
		<use xlink:href="#SVGID_1_"  style="overflow:visible;"/>
	</clipPath>
	<path class="st0" d="M18.9,0C8.5,0,0,8.5,0,18.9c0,9.2,6.6,16.9,15.3,18.6v14.9h-3.6c-2,0-3.7,1.6-3.7,3.7c0,2,1.6,3.7,3.7,3.7h3.6
		v9.5c0,2,1.6,3.6,3.7,3.6c2,0,3.7-1.6,3.7-3.6v-9.5h3.6c2,0,3.7-1.6,3.7-3.7c0-2-1.6-3.7-3.7-3.7h-3.6V37.5
		c8.7-1.7,15.3-9.4,15.3-18.6C37.9,8.5,29.4,0,18.9,0 M18.9,30.6c-6.4,0-11.6-5.2-11.6-11.6c0-6.4,5.2-11.6,11.6-11.6
		c6.4,0,11.6,5.2,11.6,11.6C30.6,25.4,25.4,30.6,18.9,30.6"/>
</g>
</svg>
